<?xml version="1.0" standalone="no"?>
<!DOCTYPE svg PUBLIC "-//W3C//DTD SVG 20010904//EN"
 "http://www.w3.org/TR/2001/REC-SVG-20010904/DTD/svg10.dtd">
<svg version="1.0" xmlns="http://www.w3.org/2000/svg"
 width="1200.000000pt" height="600.000000pt" viewBox="0 0 1200.000000 600.000000"
 preserveAspectRatio="xMidYMid meet">

<g transform="translate(0.000000,600.000000) scale(0.100000,-0.100000)"
fill="#000000" stroke="none">

  <rect x="6515" y="1575" width="3900" height="3900" fill="black" />

<g fill="white">
<path d="M6500 3535 l0 -1965 1965 0 1965 0 0 1965 0 1965 -1965 0 -1965 0 0
-1965z m1709 1124 c17 -6 36 -19 41 -29 6 -10 10 -94 10 -185 l0 -167 -29 -29
-29 -29 -207 0 c-156 0 -207 -3 -210 -12 -2 -7 -6 -401 -9 -876 -3 -698 -7
-866 -18 -879 -28 -34 -74 -43 -217 -43 -148 0 -185 8 -198 44 -5 12 -8 413
-8 891 l0 870 -224 5 -224 5 -18 25 c-16 21 -19 48 -20 190 -2 176 4 206 44
215 43 10 138 11 708 13 399 1 586 -1 608 -9z m1138 -16 c34 -38 52 -75 113
-238 108 -287 321 -914 360 -1057 29 -108 46 -160 184 -588 42 -129 76 -250
76 -267 0 -70 -56 -87 -264 -81 l-118 3 -33 37 c-19 20 -39 56 -45 80 -19 72
-102 312 -113 326 -7 9 -83 12 -340 10 l-331 -3 -12 -35 c-7 -19 -29 -93 -49
-165 -20 -71 -42 -143 -48 -160 -28 -80 -86 -99 -284 -94 -113 4 -134 7 -153
24 -32 29 -24 72 58 340 38 127 93 305 121 397 28 93 61 193 72 224 12 31 41
117 64 192 24 76 58 178 76 227 17 50 49 149 69 220 21 72 48 157 62 190 13
33 44 130 68 215 39 138 48 159 81 193 l37 37 161 0 162 0 26 -27z" />
<path d="M9130 3848 c-13 -46 -55 -182 -95 -303 -56 -171 -69 -222 -59 -228 7
-4 100 -6 206 -5 l193 3 -4 25 c-3 28 -45 151 -115 345 -26 72 -57 156 -68
188 -11 31 -24 57 -28 57 -4 0 -18 -37 -30 -82z" />
</g>
<g fill="white">
<path d="M2685 4884 c-283 -44 -532 -170 -735 -374 -189 -188 -314 -422 -367
-688 -24 -120 -24 -374 0 -494 53 -266 178 -500 367 -688 478 -478 1233 -520
1763 -98 l71 56 50 -43 c158 -133 382 -238 603 -281 120 -24 356 -24 476 0
273 53 496 172 693 370 261 260 388 565 388 931 0 366 -127 671 -388 931 -197
198 -420 317 -693 370 -120 24 -356 24 -476 0 -221 -43 -445 -148 -603 -281
l-50 -43 -71 56 c-138 110 -312 199 -478 245 -165 46 -379 58 -550 31z m320
-149 c227 -34 432 -120 612 -256 l54 -40 -21 -27 c-139 -178 -235 -386 -276
-599 -24 -120 -24 -356 0 -476 41 -213 137 -421 276 -599 l21 -27 -54 -40
c-183 -139 -386 -222 -620 -257 -89 -13 -124 -14 -195 -5 -255 33 -480 128
-674 282 -254 202 -448 662 -408 968 32 253 127 480 281 673 157 197 455 356
756 402 116 18 131 18 248 1z m1857 -11 c229 -44 487 -175 637 -325 62 -62
163 -204 208 -293 99 -195 155 -451 134 -614 -33 -255 -128 -480 -282 -674
-165 -208 -478 -367 -801 -409 -234 -30 -573 79 -814 261 l-53 40 50 66 c136
180 219 380 254 609 52 347 -40 706 -254 989 l-50 66 53 40 c174 132 380 219
601 255 99 16 194 12 317 -11z m-1030 -476 l42 -63 -52 43 c-59 50 -66 58 -57
72 12 19 25 9 67 -52z m13 -187 c72 -64 134 -123 140 -131 15 -22 34 -92 25
-88 -10 4 -312 272 -329 292 -15 18 3 61 22 49 7 -4 71 -59 142 -122z m7 -230
c179 -158 197 -177 203 -213 4 -22 5 -42 2 -45 -3 -3 -108 86 -234 198 -125
111 -230 204 -232 205 -2 2 2 17 9 34 15 36 -12 55 252 -179z m-42 -195 c124
-110 226 -207 228 -216 2 -9 -1 -26 -5 -38 -8 -20 -30 -3 -255 198 -164 146
-246 225 -243 235 16 50 14 48 32 34 10 -8 119 -104 243 -213z m173 -418 c0
-17 -5 -34 -10 -39 -6 -6 -361 298 -461 395 -9 8 -11 26 -6 53 l6 41 237 -210
c214 -191 236 -213 234 -240z m-270 31 c100 -89 189 -168 196 -175 13 -12 13
-18 -3 -50 l-17 -37 -22 20 c-12 11 -87 77 -167 148 -95 83 -149 139 -156 159
-14 40 -25 96 -18 96 2 0 87 -73 187 -161z m107 -359 c0 -4 -9 -18 -19 -31
-18 -21 -21 -22 -35 -9 -20 20 -126 191 -126 203 0 5 41 -28 90 -73 50 -45 90
-86 90 -90z"/>
</g>
<g fill="white">
<path d="M1927 1053 c-9 -8 -9 -66 -1 -87 5 -12 20 -16 60 -16 l54 0 2 -212 3
-213 50 0 50 0 3 212 2 212 53 3 52 3 3 53 3 52 -164 0 c-90 0 -167 -3 -170
-7z"/>
<path d="M2595 1051 c-3 -6 -7 -126 -8 -268 l-2 -258 157 -3 157 -3 7 25 c3
13 4 37 2 52 l-3 29 -107 3 -108 3 0 59 0 60 106 0 105 0 -3 53 -3 52 -102 3
-103 3 0 44 0 45 105 0 c116 0 117 1 112 75 l-2 30 -152 3 c-92 1 -154 -1
-158 -7z"/>
<path d="M3385 1050 c-8 -13 -152 -453 -160 -489 -5 -25 -3 -29 25 -34 51 -11
78 7 92 58 l12 45 82 0 82 0 12 -32 c30 -81 27 -78 74 -78 25 0 47 4 50 9 3 4
-3 35 -13 67 -65 201 -127 385 -142 422 -18 40 -20 42 -63 42 -25 0 -48 -4
-51 -10z m80 -243 l25 -67 -51 0 c-37 0 -50 4 -46 13 2 6 13 38 23 69 9 32 19
56 21 55 1 -2 14 -33 28 -70z"/>
<path d="M4060 1043 c-59 -31 -82 -86 -88 -217 -6 -144 8 -216 53 -265 l33
-36 94 0 c77 0 98 3 120 20 35 25 68 91 68 134 l0 32 -52 -3 c-48 -3 -52 -5
-60 -33 -10 -39 -33 -55 -79 -55 -60 0 -69 22 -69 162 0 68 5 128 12 143 23
50 100 44 128 -10 8 -17 20 -33 25 -37 14 -10 67 -10 84 1 30 19 -13 123 -64
157 -40 26 -160 30 -205 7z"/>
<path d="M4686 1051 c-4 -6 -8 -128 -9 -273 l-2 -263 50 0 50 0 3 103 3 102
74 0 74 0 3 -102 3 -103 46 -3 46 -3 7 255 c4 140 5 264 1 276 -6 18 -13 21
-53 18 l-47 -3 -3 -112 -3 -113 -74 0 -74 0 -3 113 -3 112 -42 3 c-22 2 -44
-1 -47 -7z"/>
<path d="M5385 1047 c-3 -7 -4 -127 -3 -267 l3 -255 158 -3 158 -3 -3 53 -3
53 -102 3 -103 3 0 59 0 60 100 0 c97 0 100 1 106 24 3 13 4 37 2 52 l-3 29
-102 3 -103 3 0 44 0 44 103 3 102 3 3 53 3 52 -156 0 c-116 0 -157 -3 -160
-13z"/>
<path d="M6045 1039 c-3 -13 -4 -134 -3 -269 l3 -245 44 -3 c50 -4 61 7 55 52
-3 17 -1 56 3 86 l8 55 59 -85 c33 -47 66 -91 74 -97 19 -15 108 -17 117 -3 3
6 -26 54 -65 107 l-70 97 27 14 c75 38 110 102 99 180 -14 100 -54 124 -223
130 -122 4 -122 4 -128 -19z m230 -105 c19 -25 19 -59 -1 -79 -12 -12 -31 -15
-72 -13 l-56 3 1 55 c1 30 2 57 2 59 1 2 26 1 56 -1 39 -3 60 -10 70 -24z"/>
<path d="M7342 1048 c-5 -7 -14 -29 -20 -48 -5 -19 -39 -126 -76 -238 -36
-112 -66 -209 -66 -216 0 -18 54 -28 83 -17 17 7 28 23 37 55 l13 46 83 0 83
0 12 -42 c18 -61 26 -68 75 -68 40 0 44 2 44 25 0 13 -6 42 -14 62 -8 21 -38
110 -66 198 -29 88 -61 181 -72 208 -20 46 -22 47 -63 47 -23 0 -47 -6 -53
-12z m97 -295 c1 -9 -14 -13 -44 -13 -25 0 -45 4 -45 8 0 7 20 74 37 122 5 14
51 -90 52 -117z"/>
<path d="M7944 1049 c-5 -8 -8 -129 -8 -269 l1 -255 49 0 49 0 5 99 5 98 70
-98 71 -99 53 -3 c30 -2 58 1 62 5 5 5 -23 53 -62 106 -39 54 -69 100 -66 103
3 3 20 14 39 23 18 10 44 33 56 52 20 29 23 44 20 101 -4 72 -18 97 -73 126
-42 22 -258 30 -271 11z m214 -105 c25 -17 31 -71 10 -92 -7 -7 -38 -12 -70
-12 l-58 0 0 60 0 60 48 0 c27 0 57 -7 70 -16z"/>
<path d="M8625 1047 c-3 -7 -4 -129 -3 -272 l3 -260 48 -3 c39 -3 47 0 48 15
1 10 4 78 8 150 l6 133 50 -83 c35 -57 56 -82 70 -82 14 0 33 25 70 88 l50 89
5 -154 5 -153 49 0 49 0 -2 264 c-1 146 -4 268 -7 273 -3 4 -23 8 -44 8 l-39
0 -68 -120 c-37 -65 -72 -119 -76 -120 -4 0 -22 30 -39 68 -17 37 -46 91 -65
120 -31 49 -35 52 -73 52 -24 0 -43 -5 -45 -13z"/>
<path d="M9410 1045 c0 -8 28 -70 63 -138 l62 -122 5 -130 5 -130 50 0 50 0 3
116 3 116 74 147 c82 160 82 160 4 154 -43 -3 -44 -3 -84 -80 -22 -43 -42 -78
-45 -78 -3 0 -23 35 -45 78 l-40 77 -52 3 c-43 2 -53 0 -53 -13z"/>
</g>
</g>
</svg>
